<svg id="Logo" xmlns="http://www.w3.org/2000/svg" width="43" height="43" viewBox="0 0 43 43">
  <g id="Group_4" data-name="Group 4">
    <path id="Path_28" data-name="Path 28" d="M43,21.5a21.563,21.563,0,0,1-.552,4.863c-7.919,4.253-9.81,4-20.012,4-6.594,0-13.431,9.667-17.375,4.993A21.5,21.5,0,1,1,43,21.5Z" fill="#fff"/>
    <path id="Path_29" data-name="Path 29" d="M21.5,43A21.508,21.508,0,0,0,42.448,26.363L38.41,20.576,34.6,23.012,27.547,13.1,15.621,28.387l-4.2-1.68-6.36,8.649A21.452,21.452,0,0,0,21.5,43Z" fill="#bdc3c7"/>
    <path id="Path_30" data-name="Path 30" d="M27.547,13.1l.513,13.605,6.542-3.7Z" fill="#414f6b"/>
    <path id="Path_31" data-name="Path 31" d="M7.526,35.405l3.9,1.008,3.789,4.661,6.928-6.047L19.367,28.6l8.179-15.5L15.621,28.387l-4.2-1.68-4.2,5.711Z" fill="#ecf0f1"/>
    <path id="Path_32" data-name="Path 32" d="M11.422,26.707v3.275l1.773-.75-.887,3.779,4.623-6.3Z" fill="#414f6b"/>
    <path id="Path_33" data-name="Path 33" d="M26.044,34.775l3.275-4.916,5.795-1.809,2.771,5.693L34.6,31.413,28.06,38.3Z" fill="#414f6b"/>
    <path id="Path_34" data-name="Path 34" d="M24.658,22.052,21.5,28.477l2.255,3.653Z" fill="#414f6b"/>
    <path id="Path_35" data-name="Path 35" d="M36.248,24.194l1.638,4.913L39.9,27.091Z" fill="#ecf0f1"/>
    <path id="Path_36" data-name="Path 36" d="M15.211,35.153l2.174-3.023L16.3,35.909Z" fill="#bdc3c7"/>
  </g>
</svg>
